<svg xmlns="http://www.w3.org/2000/svg" viewBox="0 0 280 60" width="280" height="60">
  <!-- Water drop with plumbing tool - your original design -->
  <g transform="translate(5, 10) scale(0.12, 0.12)">
    <path fill="#007BFF" d="M100 0C100 0 20 100 20 160c0 44.18 35.82 80 80 80s80-35.82 80-80C180 100 100 0 100 0zm25.83 118.57c-6.35-4.09-14.72-3.69-20.57 1.02-5.21 4.17-7.43 11.05-5.7 17.46l-24.35 24.35c-1.95 1.95-1.95 5.12 0 7.07l5.66 5.66c1.95 1.95 5.12 1.95 7.07 0l24.35-24.35c6.41 1.73 13.29-.49 17.46-5.7 4.7-5.85 5.11-14.22 1.02-20.57a4.98 4.98 0 0 0-1.94-1.94z"/>
  </g>
  
  <!-- Company name -->
  <text x="45" y="32" font-family="Rubik, sans-serif" font-size="24" font-weight="600" fill="#007BFF">
    BluePipe
  </text>
  
  <!-- Tagline -->
  <text x="45" y="48" font-family="Open Sans, sans-serif" font-size="11" fill="#6B7280">
    Plumbing &amp; Heating
  </text>
</svg>